:SAMPLES-PER-SECOND 30
:FULLY-SPECIFIED
:DEGREES
49
root  57.6052 38.2898 -4.48524 -133.352 -81.6015 132.445
RightUpLeg  3.35274 2.49599 -12.172
RightLeg  50.2159 -1.85433 -2.70504
RightFoot  12.7249 -1.26923 6.24455
RightToes  5.82063e-011 0 -3.6325e-017
Spine  6.84002 2.34315 -2.86673
Spine1  8.59755 3.27995 -4.27215
HEad  -3.23489 4.06264 -6.35273
LeftShoulder1  9.38704 -12.953 -49.7969
LeftArm  -6.98937 23.7897 -26.5659
LeftForeArm  28.8715 -3.16086 -5.70793
LeftHand  -0.244104 0.0205437 5.32207
RightShoulder  6.91189 10.4659 43.125
RightArm  16.9582 0.331741 34.7213
RightForeArm  -11.2881 19.8407 6.35492
RightHand  -1.29614 3.27312 -17.4934
LeftUpLeg  -21.565 9.71306 -9.92049
LeftLeg  24.4736 7.60124 4.10401
LeftFoot  -4.59126 -0.21352 4.08835
LeftToes  3.81955e-011 1.3492e-010 1.36421e-011
50
root  56.2167 38.6757 -4.35942 -136.525 -81.2622 135.326
RightUpLeg  -3.36767 4.11842 -11.2108
RightLeg  57.2837 -1.4463 -2.88877
RightFoot  12.9772 -0.651517 3.41449
RightToes  5.82063e-011 0 -3.6325e-017
Spine  7.24307 2.07331 -3.94092
Spine1  8.43103 2.62255 -3.13824
HEad  -3.74885 4.89672 -7.17657
LeftShoulder1  9.29173 -12.8336 -49.6516
LeftArm  -6.68267 22.9974 -26.1654
LeftForeArm  29.2543 -5.31319 -5.9695
LeftHand  -0.244104 0.0205437 5.32207
RightShoulder  7.10993 10.6779 43.7311
RightArm  16.2421 -2.10445 33.8784
RightForeArm  -7.88537 17.2283 7.53455
RightHand  -1.32066 3.51569 -17.3477
LeftUpLeg  -17.8209 10.7282 -9.78905
LeftLeg  22.5272 7.28568 3.68301
LeftFoot  -6.06124 -0.117064 3.33365
LeftToes  3.81955e-011 1.3492e-010 1.36421e-011
51
root  54.8349 39.1102 -4.21536 -139.512 -81.7843 138.017
RightUpLeg  -9.15769 3.87406 -10.0925
RightLeg  60.0626 -1.75031 -3.78876
RightFoot  9.57248 -0.659474 3.96992
RightToes  5.82063e-011 0 -3.6325e-017
Spine  7.70786 1.49417 -3.8523
Spine1  8.33958 1.81011 -2.21751
HEad  -4.55114 5.46869 -7.6548
LeftShoulder1  9.2806 -12.7995 -49.6953
LeftArm  -6.34428 21.2464 -25.3539
LeftForeArm  28.6224 -7.35583 -6.25582
LeftHand  -0.244104 0.0205437 5.32207
RightShoulder  7.19945 10.7432 44.0968
RightArm  15.4303 -4.99137 33.069
RightForeArm  -4.60782 15.3638 8.39942
RightHand  -1.30561 3.36708 -17.4362
LeftUpLeg  -13.4982 11.5802 -8.90801
LeftLeg  19.5715 6.68553 2.73963
LeftFoot  -7.37388 -0.0521462 2.79369
LeftToes  3.81955e-011 1.3492e-010 1.36421e-011
52
root  53.4538 39.4604 -4.07191 -142.512 -82.5789 140.9
RightUpLeg  -14.3313 2.64892 -8.85088
RightLeg  59.0863 -2.68883 -5.31023
RightFoot  6.40579 -0.798479 5.36419
RightToes  5.82063e-011 0 -3.6325e-017
Spine  7.95885 0.88049 -3.25385
Spine1  8.42459 1.06528 -1.71461
HEad  -5.40964 5.67989 -7.72477
LeftShoulder1  9.2425 -12.7699 -49.5813
LeftArm  -6.03145 18.7424 -24.72
LeftForeArm  27.6107 -9.14773 -6.37104
LeftHand  -0.244104 0.0205437 5.32207
RightShoulder  7.17615 10.6953 44.1021
RightArm  14.7297 -8.31858 32.3653
RightForeArm  -1.76847 14.2024 8.84774
RightHand  -1.17543 2.67504 -17.0273
LeftUpLeg  -9.20948 10.2186 -7.26157
LeftLeg  16.5688 8.03416 1.20359
LeftFoot  -8.53891 -0.00975711 2.50587
LeftToes  3.81955e-011 1.3492e-010 1.36421e-011
53
root  52.0436 39.7102 -3.92933 -145.707 -83.4176 143.983
RightUpLeg  -18.547 0.874025 -7.33038
RightLeg  54.7892 -4.14703 -6.68346
RightFoot  4.50543 -0.624294 4.6905
RightToes  5.82063e-011 0 -3.6325e-017
Spine  8.22357 0.282299 -2.54021
Spine1  8.375 0.354588 -1.27255
HEad  -6.01091 5.73807 -7.59086
LeftShoulder1  9.14622 -12.705 -49.2616
LeftArm  -5.61852 16.0348 -24.4475
LeftForeArm  26.4653 -11.1149 -6.18762
LeftHand  -0.244104 0.0205437 5.32207
RightShoulder  7.09024 10.6002 43.8562
RightArm  13.6886 -11.8954 31.6493
RightForeArm  1.42484 13.4716 8.95631
RightHand  -1.03437 2.10011 -16.1485
LeftUpLeg  -5.03058 7.21382 -5.55647
LeftLeg  13.5976 10.6323 -0.679328
LeftFoot  -9.46729 0.0194083 2.28485
LeftToes  3.81955e-011 1.3492e-010 1.36421e-011
54
root  50.6165 39.8135 -3.80256 -147.391 -84.3352 145.335
RightUpLeg  -21.0469 -1.67972 -5.74474
RightLeg  46.9421 -5.88198 -7.01106
RightFoot  2.76223 -0.477558 4.03369
RightToes  5.82063e-011 0 -3.6325e-017
Spine  8.81446 -0.343829 -2.11897
Spine1  8.11258 -0.446057 -0.719668
HEad  -6.44901 5.84023 -7.45698
LeftShoulder1  9.04717 -12.6601 -48.8628
LeftArm  -5.14141 13.291 -24.3219
LeftForeArm  25.1741 -13.2606 -5.75872
LeftHand  -0.244104 0.0205437 5.32207
RightShoulder  6.98892 10.5042 43.5078
RightArm  11.3508 -15.3309 30.8897
RightForeArm  4.83005 12.6175 8.92483
RightHand  -0.993379 2.0316 -15.6586
LeftUpLeg  -1.23541 5.16473 -4.49753
LeftLeg  11.5357 11.8466 -2.10258
LeftFoot  -10.7711 0.0542474 2.12572
LeftToes  3.81955e-011 1.3492e-010 1.36421e-011
55
root  49.1351 39.7406 -3.71583 -144.233 -85.278 141.812
RightUpLeg  -21.7929 -5.42725 -4.23833
RightLeg  35.5134 -6.94869 -5.63418
RightFoot  1.32483 -0.550357 5.03206
RightToes  5.82063e-011 0 -3.6325e-017
Spine  9.29429 -0.967304 -2.37003
Spine1  7.85664 -1.3198 0.0121925
HEad  -7.03308 5.90796 -7.24265
LeftShoulder1  8.96824 -12.6588 -48.4379
LeftArm  -4.64075 10.4115 -24.1948
LeftForeArm  23.7319 -15.3316 -5.23947
LeftHand  -0.244104 0.0205437 5.32207
RightShoulder  6.87369 10.4036 43.0762
RightArm  7.43819 -18.3845 30.1988
RightForeArm  7.63639 11.2785 8.84134
RightHand  -1.02463 2.16946 -15.8546
LeftUpLeg  1.93216 4.47878 -4.0706
LeftLeg  10.9867 11.5502 -2.81428
LeftFoot  -12.6608 0.103841 2.34114
LeftToes  3.81955e-011 1.3492e-010 1.36421e-011
56
root  47.5586 39.5826 -3.66654 -135.124 -86.046 132.611
RightUpLeg  -21.6088 -10.0857 -2.58502
RightLeg  21.7083 -5.83735 -2.64821
RightFoot  1.20488 -0.624209 5.74774
RightToes  5.82063e-011 0 -3.6325e-017
Spine  9.16226 -1.48111 -3.12395
Spine1  7.76427 -2.1553 1.18302
HEad  -7.86078 5.97068 -6.78655
LeftShoulder1  8.90898 -12.6666 -48.0912
LeftArm  -3.96597 7.50496 -23.9699
LeftForeArm  22.2196 -17.3513 -4.7362
LeftHand  -0.244104 0.0205437 5.32207
RightShoulder  6.7321 10.257 42.6112
RightArm  2.96291 -21.0587 29.5466
RightForeArm  9.4559 9.58813 8.58352
RightHand  -1.05854 2.26163 -16.1786
LeftUpLeg  4.98837 4.42814 -3.9034
LeftLeg  10.4207 10.6131 -3.41944
LeftFoot  -14.4168 0.16233 2.82135
LeftToes  3.81955e-011 1.3492e-010 1.36421e-011
57
root  45.904 39.3529 -3.64852 -121.695 -86.3538 119.172
RightUpLeg  -20.9621 -11.4352 -2.45517
RightLeg  8.46451 -5.20586 1.30423
RightFoot  2.06291 -0.713318 6.17371
RightToes  5.82063e-011 0 -3.6325e-017
Spine  8.74685 -1.80535 -4.20768
Spine1  7.75561 -2.86265 2.65148
HEad  -8.68135 6.01131 -6.15035
LeftShoulder1  8.89421 -12.6782 -47.9757
LeftArm  -3.15249 4.81308 -23.5259
LeftForeArm  20.8864 -19.4301 -4.27681
LeftHand  -0.244104 0.0205437 5.32207
RightShoulder  6.58879 10.0658 42.2707
RightArm  -0.976693 -23.2421 28.8296
RightForeArm  10.2178 7.64992 8.04802
RightHand  -1.07242 2.34018 -16.2256
LeftUpLeg  8.26782 4.76293 -3.76674
LeftLeg  9.47533 9.17428 -4.18052
LeftFoot  -16.1743 0.212735 2.77025
LeftToes  3.81955e-011 1.3492e-010 1.36421e-011
58
root  44.1765 39.0044 -3.65658 -107.513 -86.3691 104.716
RightUpLeg  -20.1339 -6.54 -5.05011
RightLeg  -0.298659 -9.32202 4.93258
RightFoot  2.55121 -0.931952 7.79251
RightToes  5.82063e-011 0 -3.6325e-017
Spine  8.53603 -2.06297 -5.12813
Spine1  7.69478 -3.43499 3.83717
HEad  -9.26486 5.93586 -5.59932
LeftShoulder1  8.9151 -12.7145 -47.9811
LeftArm  -2.84445 2.46216 -22.9963
LeftForeArm  20.1854 -21.4458 -3.96256
LeftHand  -0.244104 0.0205437 5.32207
RightShoulder  6.47571 9.89203 42.0709
RightArm  -4.15139 -24.6961 28.2604
RightForeArm  9.6748 5.36823 7.19068
RightHand  -1.07074 2.35661 -16.1675
LeftUpLeg  11.5144 5.31373 -3.48562
LeftLeg  9.50289 7.41337 -4.60372
LeftFoot  -18.3647 0.239071 2.09871
LeftToes  3.81955e-011 1.3492e-010 1.36421e-011
59
root  42.3918 38.6359 -3.67077 -91.6563 -86.7481 88.5344
RightUpLeg  -20.6743 -6.66875 -4.66068
RightLeg  -1.19627 -9.24972 5.30317
RightFoot  2.3304 -1.03169 8.70265
RightToes  5.82063e-011 0 -3.6325e-017
Spine  8.33824 -2.46078 -4.78848
Spine1  7.71268 -3.96529 4.40465
HEad  -9.5735 5.64777 -5.23317
LeftShoulder1  8.91632 -12.7534 -47.8715
LeftArm  -3.663 0.646082 -22.6885
LeftForeArm  20.4228 -23.4215 -3.96462
LeftHand  -0.244104 0.0205437 5.32207
RightShoulder  6.38758 9.76822 41.8719
RightArm  -7.10321 -25.4857 28.0666
RightForeArm  8.54275 3.04143 6.19673
RightHand  -1.06121 2.25929 -16.223
LeftUpLeg  14.3607 6.17527 -2.62056
LeftLeg  10.6932 5.4409 -4.1411
LeftFoot  -20.1928 0.24104 1.54159
LeftToes  3.81955e-011 1.3492e-010 1.36421e-011
60
root  40.5463 38.3705 -3.67971 -66.8823 -87.5688 63.7114
RightUpLeg  -21.708 -7.02623 -3.0385
RightLeg  3.27214 -10.7156 4.24228
RightFoot  3.32138 -0.698177 5.68055
RightToes  5.82063e-011 0 -3.6325e-017
Spine  7.71751 -2.98847 -2.74349
Spine1  7.95789 -4.43127 4.30599
HEad  -9.60471 5.26339 -5.0395
LeftShoulder1  8.90662 -12.7489 -47.8324
LeftArm  -5.55077 -0.157195 -22.5282
LeftForeArm  21.7214 -25.8837 -4.3906
LeftHand  -0.244104 0.0205437 5.32207
RightShoulder  6.32433 9.66885 41.7628
RightArm  -9.26798 -25.92 27.9299
RightForeArm  7.50525 1.52578 5.43436
RightHand  -1.06029 2.17681 -16.3786
LeftUpLeg  16.6782 7.84021 -0.822896
LeftLeg  12.4208 2.71299 -2.79046
LeftFoot  -21.0395 0.156943 0.405932
LeftToes  3.81955e-011 1.3492e-010 1.36421e-011
61
root  38.6011 38.2111 -3.69358 -26.5138 -88.3741 23.2065
RightUpLeg  -22.9645 -9.94152 0.644966
RightLeg  10.1891 -8.51871 1.65176
RightFoot  5.6412 0.098613 -0.366868
RightToes  5.82063e-011 0 -3.6325e-017
Spine  6.90396 -3.34828 0.519821
Spine1  8.27203 -4.50725 3.5528
HEad  -9.3724 5.02804 -5.1383
LeftShoulder1  8.96765 -12.7062 -48.2917
LeftArm  -7.62173 0.528896 -22.2016
LeftForeArm  23.668 -29.348 -5.06921
LeftHand  -0.244104 0.0205437 5.32207
RightShoulder  6.32999 9.5964 42.0506
RightArm  -9.84001 -25.9079 27.3524
RightForeArm  6.80407 1.13749 5.21926
RightHand  -1.06453 2.16006 -16.4778
LeftUpLeg  18.6039 9.81549 1.6622
LeftLeg  15.104 -0.378227 -1.22321
LeftFoot  -20.7283 -0.141607 -3.2805
LeftToes  3.81955e-011 1.3492e-010 1.36421e-011
62
root  36.6226 38.1792 -3.72817 35.8651 -88.7924 -39.5853
RightUpLeg  -23.5728 -12.65 4.52689
RightLeg  16.4894 -4.16203 -0.638548
RightFoot  6.57316 0.923925 -5.64421
RightToes  5.82063e-011 0 -3.6325e-017
Spine  6.42949 -3.32746 4.28868
Spine1  8.57726 -3.99381 2.36795
HEad  -9.04442 5.01523 -5.57952
LeftShoulder1  9.10269 -12.6853 -49.0862
LeftArm  -9.5093 2.6747 -21.9397
LeftForeArm  25.8881 -33.4438 -5.93204
LeftHand  -0.244104 0.0205437 5.32207
RightShoulder  6.41913 9.60345 42.6582
RightArm  -9.3356 -24.8633 26.6457
RightForeArm  6.8323 1.28947 5.39511
RightHand  -1.05222 2.14723 -16.3179
LeftUpLeg  19.0999 10.3073 3.8935
LeftLeg  20.4581 -1.42306 -0.0774681
LeftFoot  -17.0924 -0.316031 -8.84072
LeftToes  3.81955e-011 1.3492e-010 1.36421e-011
63
root  34.7309 38.2369 -3.80009 86.7095 -87.835 -90.7743
RightUpLeg  -22.9462 -12.4712 6.34683
RightLeg  21.4444 -2.91018 -1.58128
RightFoot  3.88674 1.03759 -7.51138
RightToes  5.82063e-011 0 -3.6325e-017
Spine  6.15148 -3.18816 7.6291
Spine1  8.87286 -3.24833 1.26252
HEad  -8.82522 5.02535 -6.01975
LeftShoulder1  9.20688 -12.723 -49.5332
LeftArm  -11.0653 5.61696 -22.4919
LeftForeArm  27.6644 -37.1014 -6.78808
LeftHand  -0.244104 0.0205437 5.32207
RightShoulder  6.52426 9.70803 43.0369
RightArm  -8.80196 -22.461 26.696
RightForeArm  7.71177 1.54279 5.63506
RightHand  -1.04022 2.23983 -15.9502
LeftUpLeg  15.9009 8.18328 5.04608
LeftLeg  30.6293 0.85695 0.919514
LeftFoot  -7.72528 0.397357 -11.9645
LeftToes  3.81955e-011 1.3492e-010 1.36421e-011
